<mxfile host="app.diagrams.net" modified="2023-04-27T21:08:48.428Z" agent="Mozilla/5.0 (X11; Ubuntu; Linux x86_64; rv:109.0) Gecko/20100101 Firefox/112.0" etag="KBm1qFMXp0SWk1Kf-Amv" version="21.2.3" type="google">
  <diagram name="Страница 1" id="wRdMKkH7yuCJ4kX5_CpA">
    <mxGraphModel grid="1" page="1" gridSize="10" guides="1" tooltips="1" connect="1" arrows="1" fold="1" pageScale="1" pageWidth="827" pageHeight="1169" math="0" shadow="0">
      <root>
        <mxCell id="0" />
        <mxCell id="1" parent="0" />
        <mxCell id="Y_t2E8-iaKZ9QHONpo6F-1" value="" style="rounded=1;whiteSpace=wrap;html=1;" vertex="1" parent="1">
          <mxGeometry x="170" y="60" width="120" height="60" as="geometry" />
        </mxCell>
        <mxCell id="Y_t2E8-iaKZ9QHONpo6F-2" value="&lt;div style=&quot;font-size: 17px;&quot;&gt;Start project&lt;/div&gt;" style="text;html=1;strokeColor=none;fillColor=none;align=center;verticalAlign=middle;whiteSpace=wrap;rounded=0;fontSize=17;" vertex="1" parent="1">
          <mxGeometry x="200" y="75" width="60" height="30" as="geometry" />
        </mxCell>
        <mxCell id="Y_t2E8-iaKZ9QHONpo6F-3" value="" style="ellipse;whiteSpace=wrap;html=1;aspect=fixed;fillColor=#000000;" vertex="1" parent="1">
          <mxGeometry x="205" y="-90" width="50" height="50" as="geometry" />
        </mxCell>
        <mxCell id="Y_t2E8-iaKZ9QHONpo6F-4" value="" style="endArrow=classic;html=1;rounded=0;exitX=0.5;exitY=1;exitDx=0;exitDy=0;entryX=0.5;entryY=0;entryDx=0;entryDy=0;" edge="1" parent="1" source="Y_t2E8-iaKZ9QHONpo6F-3" target="Y_t2E8-iaKZ9QHONpo6F-1">
          <mxGeometry width="50" height="50" relative="1" as="geometry">
            <mxPoint x="390" y="260" as="sourcePoint" />
            <mxPoint x="440" y="210" as="targetPoint" />
          </mxGeometry>
        </mxCell>
        <mxCell id="Y_t2E8-iaKZ9QHONpo6F-5" value="&lt;font style=&quot;font-size: 15px;&quot;&gt;Analyze requirements and specifications&lt;br&gt;&lt;/font&gt;" style="rounded=1;whiteSpace=wrap;html=1;" vertex="1" parent="1">
          <mxGeometry x="170" y="220" width="120" height="60" as="geometry" />
        </mxCell>
        <mxCell id="Y_t2E8-iaKZ9QHONpo6F-6" value="" style="endArrow=classic;html=1;rounded=0;exitX=0.5;exitY=1;exitDx=0;exitDy=0;entryX=0.5;entryY=0;entryDx=0;entryDy=0;" edge="1" parent="1" source="Y_t2E8-iaKZ9QHONpo6F-1" target="Y_t2E8-iaKZ9QHONpo6F-5">
          <mxGeometry width="50" height="50" relative="1" as="geometry">
            <mxPoint x="240" y="-30" as="sourcePoint" />
            <mxPoint x="240" y="70" as="targetPoint" />
          </mxGeometry>
        </mxCell>
        <mxCell id="Y_t2E8-iaKZ9QHONpo6F-7" value="&lt;font style=&quot;font-size: 17px;&quot;&gt;Design and development&lt;br&gt;&lt;/font&gt;" style="rounded=1;whiteSpace=wrap;html=1;" vertex="1" parent="1">
          <mxGeometry x="170" y="360" width="120" height="60" as="geometry" />
        </mxCell>
        <mxCell id="Y_t2E8-iaKZ9QHONpo6F-8" value="" style="endArrow=classic;html=1;rounded=0;exitX=0.5;exitY=1;exitDx=0;exitDy=0;entryX=0.5;entryY=0;entryDx=0;entryDy=0;" edge="1" parent="1" source="Y_t2E8-iaKZ9QHONpo6F-5" target="Y_t2E8-iaKZ9QHONpo6F-7">
          <mxGeometry width="50" height="50" relative="1" as="geometry">
            <mxPoint x="240" y="130" as="sourcePoint" />
            <mxPoint x="240" y="230" as="targetPoint" />
          </mxGeometry>
        </mxCell>
        <mxCell id="Y_t2E8-iaKZ9QHONpo6F-9" value="&lt;font style=&quot;font-size: 17px;&quot;&gt;Testing and debugging&lt;/font&gt;" style="rounded=1;whiteSpace=wrap;html=1;" vertex="1" parent="1">
          <mxGeometry x="170" y="500" width="120" height="60" as="geometry" />
        </mxCell>
        <mxCell id="Y_t2E8-iaKZ9QHONpo6F-10" value="" style="endArrow=classic;html=1;rounded=0;exitX=0.5;exitY=1;exitDx=0;exitDy=0;entryX=0.5;entryY=0;entryDx=0;entryDy=0;" edge="1" parent="1" source="Y_t2E8-iaKZ9QHONpo6F-7" target="Y_t2E8-iaKZ9QHONpo6F-9">
          <mxGeometry width="50" height="50" relative="1" as="geometry">
            <mxPoint x="240" y="290" as="sourcePoint" />
            <mxPoint x="240" y="370" as="targetPoint" />
          </mxGeometry>
        </mxCell>
        <mxCell id="Y_t2E8-iaKZ9QHONpo6F-11" value="&lt;font style=&quot;font-size: 17px;&quot;&gt;Release and deployment&lt;br&gt;&lt;/font&gt;" style="rounded=1;whiteSpace=wrap;html=1;" vertex="1" parent="1">
          <mxGeometry x="414" y="500" width="120" height="60" as="geometry" />
        </mxCell>
        <mxCell id="Y_t2E8-iaKZ9QHONpo6F-12" value="" style="endArrow=classic;html=1;rounded=0;exitX=1;exitY=0.5;exitDx=0;exitDy=0;entryX=0;entryY=0.5;entryDx=0;entryDy=0;" edge="1" parent="1" source="Y_t2E8-iaKZ9QHONpo6F-9" target="Y_t2E8-iaKZ9QHONpo6F-11">
          <mxGeometry width="50" height="50" relative="1" as="geometry">
            <mxPoint x="390" y="430" as="sourcePoint" />
            <mxPoint x="440" y="380" as="targetPoint" />
          </mxGeometry>
        </mxCell>
        <mxCell id="Y_t2E8-iaKZ9QHONpo6F-13" value="" style="ellipse;html=1;shape=endState;fillColor=#000000;strokeColor=#ff0000;" vertex="1" parent="1">
          <mxGeometry x="438.5" y="370" width="71" height="70" as="geometry" />
        </mxCell>
        <mxCell id="Y_t2E8-iaKZ9QHONpo6F-14" value="" style="endArrow=classic;html=1;rounded=0;exitX=0.5;exitY=0;exitDx=0;exitDy=0;entryX=0.5;entryY=1;entryDx=0;entryDy=0;" edge="1" parent="1" source="Y_t2E8-iaKZ9QHONpo6F-11" target="Y_t2E8-iaKZ9QHONpo6F-13">
          <mxGeometry width="50" height="50" relative="1" as="geometry">
            <mxPoint x="390" y="430" as="sourcePoint" />
            <mxPoint x="440" y="380" as="targetPoint" />
          </mxGeometry>
        </mxCell>
      </root>
    </mxGraphModel>
  </diagram>
</mxfile>
